<?xml version="1.0" encoding="UTF-8" standalone="no"?><svg xmlns="http://www.w3.org/2000/svg" xmlns:xlink="http://www.w3.org/1999/xlink" contentScriptType="application/ecmascript" contentStyleType="text/css" height="591px" preserveAspectRatio="none" style="width:654px;height:591px;" version="1.1" viewBox="0 0 654 591" width="654px" zoomAndPan="magnify"><defs><filter height="300%" id="frblcwqe042mt" width="300%" x="-1" y="-1"><feGaussianBlur result="blurOut" stdDeviation="2.0"/><feColorMatrix in="blurOut" result="blurOut2" type="matrix" values="0 0 0 0 0 0 0 0 0 0 0 0 0 0 0 0 0 0 .4 0"/><feOffset dx="4.0" dy="4.0" in="blurOut2" result="blurOut3"/><feBlend in="SourceGraphic" in2="blurOut3" mode="normal"/></filter></defs><g><!--cluster java.lang--><polygon fill="#FFFFFF" filter="url(#frblcwqe042mt)" points="33,16,102,16,109,38.4883,357,38.4883,357,125,33,125,33,16" style="stroke: #000000; stroke-width: 1.5;"/><line style="stroke: #000000; stroke-width: 1.5;" x1="33" x2="109" y1="38.4883" y2="38.4883"/><text fill="#000000" font-family="sans-serif" font-size="14" font-weight="bold" lengthAdjust="spacingAndGlyphs" textLength="63" x="37" y="31.5352">java.lang</text><!--cluster ohm.softa.a04--><polygon fill="#FFFFFF" filter="url(#frblcwqe042mt)" points="14,150,121,150,128,172.4883,632,172.4883,632,579,14,579,14,150" style="stroke: #000000; stroke-width: 1.5;"/><line style="stroke: #000000; stroke-width: 1.5;" x1="14" x2="128" y1="172.4883" y2="172.4883"/><text fill="#000000" font-family="sans-serif" font-size="14" font-weight="bold" lengthAdjust="spacingAndGlyphs" textLength="101" x="18" y="165.5352">ohm.softa.a04</text><!--class Iterable--><rect fill="#FEFECE" filter="url(#frblcwqe042mt)" height="60.9551" id="Iterable" style="stroke: #A80036; stroke-width: 1.5;" width="145" x="203.5" y="49.5"/><ellipse cx="244.15" cy="65.5" fill="#B4A7E5" rx="11" ry="11" style="stroke: #A80036; stroke-width: 1.0;"/><path d="M240.5777,61.7651 L240.5777,59.6069 L247.9571,59.6069 L247.9571,61.7651 L245.4918,61.7651 L245.4918,69.8418 L247.9571,69.8418 L247.9571,72 L240.5777,72 L240.5777,69.8418 L243.0431,69.8418 L243.0431,61.7651 Z "/><text fill="#000000" font-family="sans-serif" font-size="12" font-style="italic" lengthAdjust="spacingAndGlyphs" textLength="44" x="263.85" y="70.0352">Iterable</text><rect fill="#FFFFFF" height="16.1328" style="stroke: #000000; stroke-width: 1.0; stroke-dasharray: 2.0,2.0;" width="10" x="341.5" y="46.5"/><text fill="#000000" font-family="sans-serif" font-size="12" font-style="italic" lengthAdjust="spacingAndGlyphs" textLength="8" x="342.5" y="59.1016">T</text><line style="stroke: #A80036; stroke-width: 1.5;" x1="204.5" x2="347.5" y1="81.5" y2="81.5"/><line style="stroke: #A80036; stroke-width: 1.5;" x1="204.5" x2="347.5" y1="89.5" y2="89.5"/><ellipse cx="214.5" cy="101.4775" fill="#84BE84" rx="3" ry="3" style="stroke: #038048; stroke-width: 1.0;"/><text fill="#000000" font-family="sans-serif" font-size="11" lengthAdjust="spacingAndGlyphs" textLength="119" x="223.5" y="104.1348">iterator(): Iterator&lt;T&gt;</text><!--class Iterator--><rect fill="#FEFECE" filter="url(#frblcwqe042mt)" height="73.9102" id="Iterator" style="stroke: #A80036; stroke-width: 1.5;" width="127" x="41.5" y="43"/><ellipse cx="74.95" cy="59" fill="#B4A7E5" rx="11" ry="11" style="stroke: #A80036; stroke-width: 1.0;"/><path d="M71.3777,55.2651 L71.3777,53.1069 L78.7571,53.1069 L78.7571,55.2651 L76.2918,55.2651 L76.2918,63.3418 L78.7571,63.3418 L78.7571,65.5 L71.3777,65.5 L71.3777,63.3418 L73.8431,63.3418 L73.8431,55.2651 Z "/><text fill="#000000" font-family="sans-serif" font-size="12" font-style="italic" lengthAdjust="spacingAndGlyphs" textLength="42" x="93.05" y="63.5352">Iterator</text><rect fill="#FFFFFF" height="16.1328" style="stroke: #000000; stroke-width: 1.0; stroke-dasharray: 2.0,2.0;" width="10" x="161.5" y="40"/><text fill="#000000" font-family="sans-serif" font-size="12" font-style="italic" lengthAdjust="spacingAndGlyphs" textLength="8" x="162.5" y="52.6016">T</text><line style="stroke: #A80036; stroke-width: 1.5;" x1="42.5" x2="167.5" y1="75" y2="75"/><line style="stroke: #A80036; stroke-width: 1.5;" x1="42.5" x2="167.5" y1="83" y2="83"/><ellipse cx="52.5" cy="94.9775" fill="#84BE84" rx="3" ry="3" style="stroke: #038048; stroke-width: 1.0;"/><text fill="#000000" font-family="sans-serif" font-size="11" lengthAdjust="spacingAndGlyphs" textLength="101" x="61.5" y="97.6348">hasNext(): boolean</text><ellipse cx="52.5" cy="107.9326" fill="#84BE84" rx="3" ry="3" style="stroke: #038048; stroke-width: 1.0;"/><text fill="#000000" font-family="sans-serif" font-size="11" lengthAdjust="spacingAndGlyphs" textLength="45" x="61.5" y="110.5898">next(): T</text><!--class SimpleFilter--><rect fill="#FEFECE" filter="url(#frblcwqe042mt)" height="60.9551" id="SimpleFilter" style="stroke: #A80036; stroke-width: 1.5;" width="158" x="466" y="196.5"/><ellipse cx="502.6" cy="212.5" fill="#B4A7E5" rx="11" ry="11" style="stroke: #A80036; stroke-width: 1.0;"/><path d="M499.0277,208.7651 L499.0277,206.6069 L506.4071,206.6069 L506.4071,208.7651 L503.9418,208.7651 L503.9418,216.8418 L506.4071,216.8418 L506.4071,219 L499.0277,219 L499.0277,216.8418 L501.4931,216.8418 L501.4931,208.7651 Z "/><text fill="#000000" font-family="sans-serif" font-size="12" font-style="italic" lengthAdjust="spacingAndGlyphs" textLength="66" x="521.4" y="217.0352">SimpleFilter</text><rect fill="#FFFFFF" height="16.1328" style="stroke: #000000; stroke-width: 1.0; stroke-dasharray: 2.0,2.0;" width="10" x="617" y="193.5"/><text fill="#000000" font-family="sans-serif" font-size="12" font-style="italic" lengthAdjust="spacingAndGlyphs" textLength="8" x="618" y="206.1016">T</text><line style="stroke: #A80036; stroke-width: 1.5;" x1="467" x2="623" y1="228.5" y2="228.5"/><line style="stroke: #A80036; stroke-width: 1.5;" x1="467" x2="623" y1="236.5" y2="236.5"/><ellipse cx="477" cy="248.4775" fill="#84BE84" rx="3" ry="3" style="stroke: #038048; stroke-width: 1.0;"/><text fill="#000000" font-family="sans-serif" font-size="11" lengthAdjust="spacingAndGlyphs" textLength="132" x="486" y="251.1348">include(item: T): boolean</text><!--class SimpleList--><rect fill="#FEFECE" filter="url(#frblcwqe042mt)" height="99.8203" id="SimpleList" style="stroke: #A80036; stroke-width: 1.5;" width="262" x="169" y="177"/><ellipse cx="261.25" cy="193" fill="#B4A7E5" rx="11" ry="11" style="stroke: #A80036; stroke-width: 1.0;"/><path d="M257.6777,189.2651 L257.6777,187.1069 L265.0571,187.1069 L265.0571,189.2651 L262.5918,189.2651 L262.5918,197.3418 L265.0571,197.3418 L265.0571,199.5 L257.6777,199.5 L257.6777,197.3418 L260.1431,197.3418 L260.1431,189.2651 Z "/><text fill="#000000" font-family="sans-serif" font-size="12" font-style="italic" lengthAdjust="spacingAndGlyphs" textLength="57" x="281.75" y="197.5352">SimpleList</text><rect fill="#FFFFFF" height="16.1328" style="stroke: #000000; stroke-width: 1.0; stroke-dasharray: 2.0,2.0;" width="10" x="424" y="174"/><text fill="#000000" font-family="sans-serif" font-size="12" font-style="italic" lengthAdjust="spacingAndGlyphs" textLength="8" x="425" y="186.6016">T</text><line style="stroke: #A80036; stroke-width: 1.5;" x1="170" x2="430" y1="209" y2="209"/><line style="stroke: #A80036; stroke-width: 1.5;" x1="170" x2="430" y1="217" y2="217"/><ellipse cx="180" cy="228.9775" fill="#84BE84" rx="3" ry="3" style="stroke: #038048; stroke-width: 1.0;"/><text fill="#000000" font-family="sans-serif" font-size="11" lengthAdjust="spacingAndGlyphs" textLength="64" x="189" y="231.6348">add(item: T)</text><ellipse cx="180" cy="241.9326" fill="#84BE84" rx="3" ry="3" style="stroke: #038048; stroke-width: 1.0;"/><text fill="#000000" font-family="sans-serif" font-size="11" lengthAdjust="spacingAndGlyphs" textLength="81" x="189" y="244.5898">addDefault(???)</text><ellipse cx="180" cy="254.8877" fill="#84BE84" rx="3" ry="3" style="stroke: #038048; stroke-width: 1.0;"/><text fill="#000000" font-family="sans-serif" font-size="11" lengthAdjust="spacingAndGlyphs" textLength="49" x="189" y="257.5449">size(): int</text><ellipse cx="180" cy="267.8428" fill="#84BE84" rx="3" ry="3" style="stroke: #038048; stroke-width: 1.0;"/><text fill="#000000" font-family="sans-serif" font-size="11" lengthAdjust="spacingAndGlyphs" textLength="236" x="189" y="270.5">filter(filter: SimpleFilter&lt;T&gt;): SimpleList&lt;T&gt;</text><!--class SimpleListImpl--><rect fill="#FEFECE" filter="url(#frblcwqe042mt)" height="60.9551" id="SimpleListImpl" style="stroke: #A80036; stroke-width: 1.5;" width="144" x="228" y="337"/><ellipse cx="251.1" cy="353" fill="#ADD1B2" rx="11" ry="11" style="stroke: #A80036; stroke-width: 1.0;"/><path d="M253.5731,359.1431 Q252.9921,359.4419 252.3529,359.5913 Q251.7138,359.7407 251.0082,359.7407 Q248.5014,359.7407 247.1815,358.0889 Q245.8617,356.437 245.8617,353.3159 Q245.8617,350.1865 247.1815,348.5347 Q248.5014,346.8828 251.0082,346.8828 Q251.7138,346.8828 252.3612,347.0322 Q253.0087,347.1816 253.5731,347.4805 L253.5731,350.2031 Q252.9423,349.6221 252.3488,349.3523 Q251.7553,349.0825 251.1244,349.0825 Q249.7797,349.0825 249.0949,350.1492 Q248.4101,351.2158 248.4101,353.3159 Q248.4101,355.4077 249.0949,356.4744 Q249.7797,357.541 251.1244,357.541 Q251.7553,357.541 252.3488,357.2712 Q252.9423,357.0015 253.5731,356.4204 Z "/><text fill="#000000" font-family="sans-serif" font-size="12" lengthAdjust="spacingAndGlyphs" textLength="82" x="266.9" y="357.5352">SimpleListImpl</text><rect fill="#FFFFFF" height="16.1328" style="stroke: #000000; stroke-width: 1.0; stroke-dasharray: 2.0,2.0;" width="10" x="365" y="334"/><text fill="#000000" font-family="sans-serif" font-size="12" font-style="italic" lengthAdjust="spacingAndGlyphs" textLength="8" x="366" y="346.6016">T</text><line style="stroke: #A80036; stroke-width: 1.5;" x1="229" x2="371" y1="369" y2="369"/><rect fill="none" height="6" style="stroke: #C82930; stroke-width: 1.0;" width="6" x="236" y="377.9775"/><text fill="#000000" font-family="sans-serif" font-size="11" lengthAdjust="spacingAndGlyphs" textLength="118" x="248" y="383.6348">head: ListElement&lt;T&gt;</text><line style="stroke: #A80036; stroke-width: 1.5;" x1="229" x2="371" y1="389.9551" y2="389.9551"/><!--class SimpleIterator--><rect fill="#FEFECE" filter="url(#frblcwqe042mt)" height="48" id="SimpleIterator" style="stroke: #A80036; stroke-width: 1.5;" width="112" x="22" y="203"/><ellipse cx="37" cy="219" fill="#ADD1B2" rx="11" ry="11" style="stroke: #A80036; stroke-width: 1.0;"/><path d="M39.4731,225.1431 Q38.8921,225.4419 38.2529,225.5913 Q37.6138,225.7407 36.9082,225.7407 Q34.4014,225.7407 33.0815,224.0889 Q31.7617,222.437 31.7617,219.3159 Q31.7617,216.1865 33.0815,214.5347 Q34.4014,212.8828 36.9082,212.8828 Q37.6138,212.8828 38.2612,213.0322 Q38.9087,213.1816 39.4731,213.4805 L39.4731,216.2031 Q38.8423,215.6221 38.2488,215.3523 Q37.6553,215.0825 37.0244,215.0825 Q35.6797,215.0825 34.9949,216.1492 Q34.3101,217.2158 34.3101,219.3159 Q34.3101,221.4077 34.9949,222.4744 Q35.6797,223.541 37.0244,223.541 Q37.6553,223.541 38.2488,223.2712 Q38.8423,223.0015 39.4731,222.4204 Z "/><text fill="#000000" font-family="sans-serif" font-size="12" lengthAdjust="spacingAndGlyphs" textLength="80" x="51" y="223.5352">SimpleIterator</text><line style="stroke: #A80036; stroke-width: 1.5;" x1="23" x2="133" y1="235" y2="235"/><line style="stroke: #A80036; stroke-width: 1.5;" x1="23" x2="133" y1="243" y2="243"/><!--class ListElement--><rect fill="#FEFECE" filter="url(#frblcwqe042mt)" height="112.7754" id="ListElement" style="stroke: #A80036; stroke-width: 1.5;" width="173" x="213.5" y="458"/><ellipse cx="252.35" cy="474" fill="#ADD1B2" rx="11" ry="11" style="stroke: #A80036; stroke-width: 1.0;"/><path d="M254.8231,480.1431 Q254.2421,480.4419 253.6029,480.5913 Q252.9638,480.7407 252.2582,480.7407 Q249.7514,480.7407 248.4315,479.0889 Q247.1117,477.437 247.1117,474.3159 Q247.1117,471.1865 248.4315,469.5347 Q249.7514,467.8828 252.2582,467.8828 Q252.9638,467.8828 253.6112,468.0322 Q254.2587,468.1816 254.8231,468.4805 L254.8231,471.2031 Q254.1923,470.6221 253.5988,470.3523 Q253.0053,470.0825 252.3744,470.0825 Q251.0297,470.0825 250.3449,471.1492 Q249.6601,472.2158 249.6601,474.3159 Q249.6601,476.4077 250.3449,477.4744 Q251.0297,478.541 252.3744,478.541 Q253.0053,478.541 253.5988,478.2712 Q254.1923,478.0015 254.8231,477.4204 Z "/><rect fill="#F24D5C" height="6" style="stroke: #C82930; stroke-width: 1.0;" width="6" x="273.65" y="470.5"/><text fill="#000000" font-family="sans-serif" font-size="12" lengthAdjust="spacingAndGlyphs" textLength="65" x="282.65" y="478.5352">ListElement</text><rect fill="#FFFFFF" height="16.1328" style="stroke: #000000; stroke-width: 1.0; stroke-dasharray: 2.0,2.0;" width="10" x="379.5" y="455"/><text fill="#000000" font-family="sans-serif" font-size="12" font-style="italic" lengthAdjust="spacingAndGlyphs" textLength="8" x="380.5" y="467.6016">T</text><line style="stroke: #A80036; stroke-width: 1.5;" x1="214.5" x2="385.5" y1="490" y2="490"/><rect fill="none" height="6" style="stroke: #C82930; stroke-width: 1.0;" width="6" x="221.5" y="498.9775"/><text fill="#000000" font-family="sans-serif" font-size="11" lengthAdjust="spacingAndGlyphs" textLength="36" x="233.5" y="504.6348">item: T</text><rect fill="none" height="6" style="stroke: #C82930; stroke-width: 1.0;" width="6" x="221.5" y="511.9326"/><text fill="#000000" font-family="sans-serif" font-size="11" lengthAdjust="spacingAndGlyphs" textLength="116" x="233.5" y="517.5898">next: ListElement&lt;T&gt;</text><line style="stroke: #A80036; stroke-width: 1.5;" x1="214.5" x2="385.5" y1="523.9102" y2="523.9102"/><ellipse cx="224.5" cy="535.8877" fill="#84BE84" rx="3" ry="3" style="stroke: #038048; stroke-width: 1.0;"/><text fill="#000000" font-family="sans-serif" font-size="11" lengthAdjust="spacingAndGlyphs" textLength="61" x="233.5" y="538.5449">getItem(): T</text><ellipse cx="224.5" cy="548.8428" fill="#84BE84" rx="3" ry="3" style="stroke: #038048; stroke-width: 1.0;"/><text fill="#000000" font-family="sans-serif" font-size="11" lengthAdjust="spacingAndGlyphs" textLength="142" x="233.5" y="551.5">getNext(): ListElement&lt;T&gt;</text><ellipse cx="224.5" cy="561.7979" fill="#84BE84" rx="3" ry="3" style="stroke: #038048; stroke-width: 1.0;"/><text fill="#000000" font-family="sans-serif" font-size="11" lengthAdjust="spacingAndGlyphs" textLength="147" x="233.5" y="564.4551">setNext(e: ListElement&lt;T&gt;)</text><!--link Iterable to SimpleList--><path d="M284.2774,130.6989 C286.7147,145.6276 289.3795,161.9492 291.8112,176.8437 " fill="none" id="Iterable-SimpleList" style="stroke: #A80036; stroke-width: 1.0;"/><polygon fill="none" points="277.3454,131.6826,281.0312,110.816,291.1624,129.4267,277.3454,131.6826" style="stroke: #A80036; stroke-width: 1.0;"/><!--link SimpleList to SimpleListImpl--><path d="M300,297.3559 C300,311.1946 300,325.0278 300,336.7074 " fill="none" id="SimpleList-SimpleListImpl" style="stroke: #A80036; stroke-width: 1.0; stroke-dasharray: 7.0,7.0;"/><polygon fill="none" points="293.0001,297.3269,300,277.3269,307.0001,297.3268,293.0001,297.3269" style="stroke: #A80036; stroke-width: 1.0;"/><!--link Iterator to SimpleIterator--><path d="M94.5664,136.8052 C90.3588,159.713 85.7317,184.9053 82.4396,202.8289 " fill="none" id="Iterator-SimpleIterator" style="stroke: #A80036; stroke-width: 1.0; stroke-dasharray: 7.0,7.0;"/><polygon fill="none" points="87.6888,135.5007,98.1868,117.0943,101.4585,138.0298,87.6888,135.5007" style="stroke: #A80036; stroke-width: 1.0;"/><!--link SimpleListImpl to ListElement--><path d="M288.0841,413.4163 C287.1922,427.5059 287.0156,443.1773 287.5542,457.8935 " fill="none" id="SimpleListImpl-ListElement" style="stroke: #A80036; stroke-width: 1.0;"/><ellipse cx="288.703" cy="406.286" fill="#FFFFFF" rx="8" ry="8" style="stroke: #A80036; stroke-width: 1.0;"/><line style="stroke: #A80036; stroke-width: 1.0;" x1="288.0111" x2="289.3949" y1="414.256" y2="398.316"/><line style="stroke: #A80036; stroke-width: 1.0;" x1="280.733" x2="296.673" y1="405.5941" y2="406.9779"/><!--link ListElement to SimpleListImpl--><path d="M313.1779,457.8935 C313.7727,442.5443 313.5437,426.156 312.4908,411.6072 " fill="none" id="ListElement-SimpleListImpl" style="stroke: #A80036; stroke-width: 1.0;"/><polygon fill="#A80036" points="311.2289,398.316,307.814,404.6672,312.3632,410.2623,315.7782,403.911,311.2289,398.316" style="stroke: #A80036; stroke-width: 1.0;"/><!--
@startuml
package java.lang {
    
    interface Iterable<T> {
        +iterator(): Iterator<T>
    }

    interface Iterator<T> {
        +hasNext(): boolean
        +next(): T
    }
}

package ohm.softa.a04 {
        interface SimpleFilter<T> {
            +include(item: T): boolean
        }

        interface SimpleList<T> extends Iterable {
            +add(item: T)
            +addDefault(???)
            +size(): int
            +filter(filter: SimpleFilter<T>): SimpleList<T>
        }

        class SimpleListImpl<T> implements SimpleList {
           -head: ListElement<T>
        }

        class SimpleIterator implements Iterator {
        }

        -class ListElement<T> {
            -item: T
            -next: ListElement<T>
    
            +getItem(): T
            +getNext(): ListElement<T>
            +setNext(e: ListElement<T>)
        }

        SimpleListImpl +- - ListElement
        ListElement - -* SimpleListImpl
    }
@enduml

PlantUML version 1.2019.03(Sun Mar 10 12:04:44 CET 2019)
(GPL source distribution)
Java Runtime: OpenJDK Runtime Environment
JVM: OpenJDK 64-Bit Server VM
Java Version: 11.0.2+9
Operating System: Mac OS X
OS Version: 10.14.4
Default Encoding: UTF-8
Language: en
Country: GB
--></g></svg>